<svg xmlns="http://www.w3.org/2000/svg" xmlns:xlink="http://www.w3.org/1999/xlink" width="384" zoomAndPan="magnify" viewBox="0 0 288 95.999999" height="128" preserveAspectRatio="xMidYMid meet" version="1.0"><defs><g/><clipPath id="e6b28075c4"><path d="M 34.582031 9.601562 L 105.996094 9.601562 L 105.996094 73.777344 L 34.582031 73.777344 Z M 34.582031 9.601562 " clip-rule="nonzero"/></clipPath><clipPath id="00c8b2c96a"><path d="M 101.222656 73.707031 L 39.308594 73.707031 C 36.703125 73.707031 34.582031 71.585938 34.582031 68.980469 L 34.582031 14.328125 C 34.582031 11.722656 36.703125 9.601562 39.308594 9.601562 L 101.222656 9.601562 C 103.828125 9.601562 105.949219 11.722656 105.949219 14.328125 L 105.949219 68.980469 C 105.949219 71.585938 103.828125 73.707031 101.222656 73.707031 " clip-rule="nonzero"/></clipPath><clipPath id="373df6a1eb"><path d="M 34.582031 22.292969 L 105.996094 22.292969 L 105.996094 86.46875 L 34.582031 86.46875 Z M 34.582031 22.292969 " clip-rule="nonzero"/></clipPath><clipPath id="84250ecfd7"><path d="M 101.222656 86.398438 L 39.308594 86.398438 C 36.703125 86.398438 34.582031 84.277344 34.582031 81.671875 L 34.582031 27.019531 C 34.582031 24.414062 36.703125 22.292969 39.308594 22.292969 L 101.222656 22.292969 C 103.828125 22.292969 105.949219 24.414062 105.949219 27.019531 L 105.949219 81.671875 C 105.949219 84.277344 103.828125 86.398438 101.222656 86.398438 " clip-rule="nonzero"/></clipPath><clipPath id="b599b8fba1"><path d="M 51.527344 28.054688 L 58.886719 28.054688 L 58.886719 35.414062 L 51.527344 35.414062 Z M 51.527344 28.054688 " clip-rule="nonzero"/></clipPath><clipPath id="4468e5a67d"><path d="M 55.207031 28.054688 C 53.175781 28.054688 51.527344 29.699219 51.527344 31.734375 C 51.527344 33.765625 53.175781 35.414062 55.207031 35.414062 C 57.238281 35.414062 58.886719 33.765625 58.886719 31.734375 C 58.886719 29.699219 57.238281 28.054688 55.207031 28.054688 " clip-rule="nonzero"/></clipPath><clipPath id="1091f985bb"><path d="M 81.644531 28.054688 L 89.003906 28.054688 L 89.003906 35.414062 L 81.644531 35.414062 Z M 81.644531 28.054688 " clip-rule="nonzero"/></clipPath><clipPath id="15764f01f4"><path d="M 85.324219 28.054688 C 83.292969 28.054688 81.644531 29.699219 81.644531 31.734375 C 81.644531 33.765625 83.292969 35.414062 85.324219 35.414062 C 87.355469 35.414062 89.003906 33.765625 89.003906 31.734375 C 89.003906 29.699219 87.355469 28.054688 85.324219 28.054688 " clip-rule="nonzero"/></clipPath><clipPath id="2e35ee8814"><path d="M 52.160156 40.730469 L 88 40.730469 L 88 58.730469 L 52.160156 58.730469 Z M 52.160156 40.730469 " clip-rule="nonzero"/></clipPath></defs><g clip-path="url(#e6b28075c4)"><g clip-path="url(#00c8b2c96a)"><path fill="#94c7fd" d="M 34.582031 9.601562 L 105.996094 9.601562 L 105.996094 73.777344 L 34.582031 73.777344 Z M 34.582031 9.601562 " fill-opacity="1" fill-rule="nonzero"/></g></g><g clip-path="url(#373df6a1eb)"><g clip-path="url(#84250ecfd7)"><path fill="#397df1" d="M 34.582031 22.292969 L 105.996094 22.292969 L 105.996094 86.46875 L 34.582031 86.46875 Z M 34.582031 22.292969 " fill-opacity="1" fill-rule="nonzero"/></g></g><g clip-path="url(#b599b8fba1)"><g clip-path="url(#4468e5a67d)"><path fill="#94c7fd" d="M 51.527344 28.054688 L 58.886719 28.054688 L 58.886719 35.414062 L 51.527344 35.414062 Z M 51.527344 28.054688 " fill-opacity="1" fill-rule="nonzero"/></g></g><g clip-path="url(#1091f985bb)"><g clip-path="url(#15764f01f4)"><path fill="#94c7fd" d="M 81.644531 28.054688 L 89.003906 28.054688 L 89.003906 35.414062 L 81.644531 35.414062 Z M 81.644531 28.054688 " fill-opacity="1" fill-rule="nonzero"/></g></g><g clip-path="url(#2e35ee8814)"><path fill="#ffffff" d="M 70.164062 58.730469 C 69.140625 58.726562 68.121094 58.640625 67.113281 58.464844 C 66.105469 58.292969 65.117188 58.035156 64.152344 57.691406 C 63.1875 57.347656 62.261719 56.925781 61.367188 56.425781 C 60.472656 55.925781 59.628906 55.355469 58.835938 54.710938 C 58.039062 54.066406 57.304688 53.359375 56.628906 52.589844 C 55.953125 51.820312 55.347656 51 54.8125 50.128906 C 54.277344 49.253906 53.820312 48.34375 53.441406 47.394531 C 53.058594 46.441406 52.761719 45.464844 52.546875 44.464844 C 52.5 44.238281 52.480469 44.011719 52.484375 43.78125 C 52.488281 43.546875 52.519531 43.320312 52.574219 43.097656 C 52.628906 42.871094 52.707031 42.65625 52.8125 42.449219 C 52.914062 42.242188 53.039062 42.050781 53.1875 41.871094 C 53.332031 41.691406 53.496094 41.53125 53.679688 41.390625 C 53.863281 41.246094 54.058594 41.125 54.265625 41.027344 C 54.476562 40.929688 54.691406 40.855469 54.917969 40.804688 C 55.144531 40.753906 55.371094 40.730469 55.601562 40.730469 C 55.960938 40.730469 56.308594 40.792969 56.644531 40.914062 C 56.980469 41.035156 57.289062 41.207031 57.566406 41.433594 C 57.84375 41.660156 58.074219 41.925781 58.257812 42.234375 C 58.445312 42.539062 58.574219 42.867188 58.644531 43.21875 C 58.789062 43.871094 58.984375 44.507812 59.234375 45.125 C 59.484375 45.746094 59.785156 46.339844 60.136719 46.90625 C 60.488281 47.476562 60.882812 48.011719 61.324219 48.511719 C 61.765625 49.011719 62.246094 49.472656 62.765625 49.890625 C 63.289062 50.3125 63.839844 50.683594 64.421875 51.007812 C 65.003906 51.335938 65.613281 51.609375 66.242188 51.832031 C 66.871094 52.054688 67.515625 52.222656 68.171875 52.335938 C 68.832031 52.449219 69.496094 52.503906 70.164062 52.503906 C 70.828125 52.503906 71.492188 52.445312 72.152344 52.332031 C 72.808594 52.21875 73.453125 52.050781 74.082031 51.828125 C 74.710938 51.605469 75.316406 51.332031 75.898438 51.007812 C 76.484375 50.679688 77.035156 50.308594 77.554688 49.890625 C 78.074219 49.46875 78.554688 49.011719 78.996094 48.511719 C 79.4375 48.007812 79.832031 47.472656 80.183594 46.90625 C 80.535156 46.339844 80.835938 45.746094 81.085938 45.125 C 81.335938 44.507812 81.53125 43.871094 81.671875 43.21875 C 81.746094 42.867188 81.875 42.539062 82.058594 42.234375 C 82.246094 41.925781 82.476562 41.660156 82.753906 41.433594 C 83.03125 41.207031 83.335938 41.035156 83.671875 40.914062 C 84.011719 40.792969 84.359375 40.730469 84.714844 40.730469 C 84.945312 40.730469 85.175781 40.753906 85.402344 40.804688 C 85.625 40.855469 85.84375 40.929688 86.050781 41.027344 C 86.261719 41.125 86.457031 41.246094 86.640625 41.390625 C 86.820312 41.53125 86.984375 41.691406 87.132812 41.871094 C 87.277344 42.050781 87.402344 42.242188 87.507812 42.449219 C 87.609375 42.65625 87.6875 42.871094 87.746094 43.097656 C 87.800781 43.320312 87.828125 43.546875 87.832031 43.78125 C 87.839844 44.011719 87.816406 44.238281 87.769531 44.464844 C 87.558594 45.464844 87.261719 46.441406 86.878906 47.390625 C 86.5 48.34375 86.042969 49.253906 85.507812 50.125 C 84.972656 51 84.367188 51.820312 83.691406 52.589844 C 83.019531 53.359375 82.28125 54.066406 81.488281 54.710938 C 80.691406 55.355469 79.847656 55.925781 78.957031 56.425781 C 78.0625 56.925781 77.132812 57.347656 76.167969 57.691406 C 75.207031 58.035156 74.21875 58.292969 73.210938 58.464844 C 72.203125 58.640625 71.1875 58.726562 70.164062 58.730469 Z M 70.164062 58.730469 " fill-opacity="1" fill-rule="nonzero"/></g><g fill="#397df1" fill-opacity="1"><g transform="translate(116.605205, 59.0117)"><g><path d="M 19.027344 0 L 24.800781 0 L 14.902344 -24.484375 L 9.898438 -24.484375 L 0.28125 0 L 5.910156 0 L 7.589844 -4.617188 L 17.3125 -4.617188 Z M 12.453125 -18.011719 L 15.671875 -9.234375 L 9.234375 -9.234375 Z M 12.453125 -18.011719 "/></g></g></g><g fill="#397df1" fill-opacity="1"><g transform="translate(141.716974, 59.0117)"><g><path d="M 2.867188 -21.40625 L 7.941406 -21.40625 L 7.941406 -26.128906 L 2.867188 -26.128906 Z M -1.574219 6.820312 L 0.875 6.820312 C 5.035156 6.820312 7.976562 3.882812 7.976562 -0.246094 L 7.976562 -18.886719 L 2.867188 -18.886719 L 2.867188 -0.628906 C 2.867188 1.1875 1.890625 2.132812 0.0703125 2.132812 L -1.574219 2.132812 Z M -1.574219 6.820312 "/></g></g></g><g fill="#397df1" fill-opacity="1"><g transform="translate(152.139407, 59.0117)"><g><path d="M 17.839844 -18.886719 L 17.3125 -17.105469 C 15.671875 -18.539062 13.535156 -19.414062 11.089844 -19.414062 C 5.421875 -19.414062 1.1875 -15.144531 1.1875 -9.445312 C 1.1875 -3.742188 5.421875 0.558594 11.089844 0.558594 C 13.5 0.558594 15.601562 -0.28125 17.210938 -1.714844 L 17.664062 0 L 21.652344 0 L 21.652344 -18.886719 Z M 11.507812 -4.265625 C 8.535156 -4.265625 6.367188 -6.503906 6.367188 -9.445312 C 6.367188 -12.417969 8.535156 -14.621094 11.507812 -14.621094 C 14.480469 -14.621094 16.648438 -12.417969 16.648438 -9.445312 C 16.648438 -6.472656 14.480469 -4.265625 11.507812 -4.265625 Z M 11.507812 -4.265625 "/></g></g></g><g fill="#397df1" fill-opacity="1"><g transform="translate(176.271896, 59.0117)"><g><path d="M 12.101562 -18.992188 C 9.652344 -18.992188 7.976562 -18.222656 6.609375 -16.542969 L 5.703125 -18.886719 L 2.449219 -18.886719 L 2.449219 0 L 7.554688 0 L 7.554688 -9.792969 C 7.554688 -12.871094 8.675781 -14.164062 11.542969 -14.164062 L 13.78125 -14.164062 L 13.78125 -18.992188 Z M 12.101562 -18.992188 "/></g></g></g><g fill="#397df1" fill-opacity="1"><g transform="translate(190.506559, 59.0117)"><g><path d="M 12.730469 -19.414062 C 10.773438 -19.414062 8.988281 -18.851562 7.554688 -17.839844 L 7.554688 -25.671875 L 2.449219 -25.671875 L 2.449219 0.0351562 L 6.191406 0.0351562 L 6.820312 -1.574219 C 8.394531 -0.210938 10.421875 0.558594 12.730469 0.558594 C 18.46875 0.558594 22.664062 -3.707031 22.664062 -9.410156 C 22.664062 -15.144531 18.46875 -19.414062 12.730469 -19.414062 Z M 12.3125 -4.265625 C 9.339844 -4.265625 7.171875 -6.503906 7.171875 -9.445312 C 7.171875 -12.382812 9.339844 -14.621094 12.3125 -14.621094 C 15.285156 -14.621094 17.453125 -12.382812 17.453125 -9.445312 C 17.453125 -6.503906 15.285156 -4.265625 12.3125 -4.265625 Z M 12.3125 -4.265625 "/></g></g></g><g fill="#397df1" fill-opacity="1"><g transform="translate(214.394222, 59.0117)"><g><path d="M 11.054688 0.558594 C 16.40625 0.558594 19.9375 -2.867188 19.9375 -7.976562 L 19.9375 -18.886719 L 14.832031 -18.886719 L 14.832031 -8.535156 C 14.832031 -5.875 13.429688 -4.265625 11.054688 -4.265625 C 8.710938 -4.265625 7.273438 -5.839844 7.273438 -8.535156 L 7.273438 -18.886719 L 2.167969 -18.886719 L 2.167969 -7.976562 C 2.167969 -2.867188 5.738281 0.558594 11.054688 0.558594 Z M 11.054688 0.558594 "/></g></g></g></svg>